<svg width="14" height="13" viewBox="0 0 14 13" fill="none" xmlns="http://www.w3.org/2000/svg">
<path d="M12.8594 2.39844C13.3672 1.92969 13.3672 1.10938 12.8594 0.640625C12.3906 0.132812 11.5703 0.132812 11.1016 0.640625L7 4.74219L2.85937 0.640625C2.39062 0.132812 1.57031 0.132812 1.10156 0.640625C0.593747 1.10938 0.593747 1.92969 1.10156 2.39844L5.20312 6.5L1.10156 10.6406C0.593747 11.1094 0.593747 11.9297 1.10156 12.3984C1.57031 12.9062 2.39062 12.9062 2.85937 12.3984L7 8.29688L11.1016 12.3984C11.5703 12.9062 12.3906 12.9062 12.8594 12.3984C13.3672 11.9297 13.3672 11.1094 12.8594 10.6406L8.75781 6.5L12.8594 2.39844Z" fill="#383D42"/>
</svg>
